<svg id="outputsvg" xmlns="http://www.w3.org/2000/svg" width="1146" height="1144" viewBox="0 0 11460 11440"><g id="l6Ns5ww7mrqbxS8CMkFUR2h" fill="rgb(255,255,255)" stroke="rgb(255,255,255)" stroke-width="10" style="transform: none;"><g style="transform: none;"><path id="p9jUu5UIe" d="M 720 11316 c 0 -87 4 -127 13 -134 6 -5 89 -45 182 -89 226 -105 364 -197 538 -360 262 -245 436 -525 542 -872 43 -139 54 -184 90 -356 85 -412 137 -906 180 -1700 44 -807 106 -1354 190 -1665 108 -399 310 -812 537 -1096 30 -38 116 -128 190 -199 285 -275 519 -392 994 -496 151 -33 151 -33 188 -199 107 -470 211 -682 464 -951 199 -213 340 -321 609 -468 264 -145 530 -243 873 -325 176 -41 577 -91 930 -116 253 -17 908 -59 1100 -70 481 -28 1068 -112 1430 -204 119 -30 359 -123 466 -181 134 -72 286 -178 390 -272 224 -201 417 -482 538 -783 34 -85 34 -85 165 -88 131 -3 131 -3 131 163 0 158 -1 165 -20 165 -16 0 -32 24 -73 108 -105 212 -230 388 -417 585 -80 85 -168 159 -318 270 -142 105 -402 233 -623 307 -291 97 -828 194 -1274 230 -71 6 -183 15 -248 20 -65 6 -335 24 -600 40 -591 37 -867 57 -972 70 -44 6 -150 19 -237 30 -225 29 -332 52 -563 122 -267 82 -565 224 -740 353 -297 219 -488 449 -593 715 -28 69 -105 375 -153 610 -11 52 -26 100 -32 106 -12 11 -51 21 -387 94 -212 46 -285 68 -388 115 -354 164 -651 484 -864 933 -213 449 -285 835 -348 1867 -45 754 -49 813 -76 1102 -14 154 -41 383 -63 538 -21 145 -106 551 -139 665 -94 322 -248 619 -448 865 -112 139 -295 307 -445 411 -88 61 -277 172 -336 198 -33 15 -43 24 -43 43 0 23 0 23 -170 23 -170 0 -170 0 -170 -124 z "></path><path id="pVDPzgx8T" d="M 254 10679 c 119 -128 227 -315 270 -464 22 -74 26 -110 26 -213 0 -78 -6 -150 -16 -195 -31 -134 -128 -312 -238 -433 -25 -29 -46 -54 -46 -57 0 -2 47 -7 103 -9 88 -5 117 -11 191 -40 86 -35 86 -35 156 39 160 168 242 365 243 583 0 95 0 95 24 42 62 -134 78 -266 48 -406 -28 -130 -72 -228 -147 -324 -27 -35 -48 -67 -46 -71 5 -15 137 -111 150 -110 7 0 33 25 58 56 139 175 196 309 201 473 1 36 6 59 12 57 15 -5 37 -73 48 -154 23 -164 -30 -338 -151 -498 -27 -36 -50 -69 -50 -73 0 -4 13 -23 28 -42 16 -19 41 -54 56 -77 14 -24 32 -43 39 -43 17 0 83 92 124 175 39 77 59 147 69 249 8 76 18 75 39 -5 19 -68 18 -187 0 -263 -17 -73 -82 -208 -124 -261 -37 -46 -39 -35 23 -210 55 -155 61 -235 25 -332 -61 -161 -260 -260 -409 -204 -63 24 -65 27 -115 147 -64 154 -223 468 -283 560 -73 111 -159 194 -200 194 -94 0 -129 -180 -120 -621 6 -255 7 -267 34 -348 52 -156 139 -258 287 -332 134 -68 201 -82 357 -76 69 3 146 12 173 20 26 8 47 12 47 8 0 -18 -37 -55 -88 -88 -82 -53 -185 -89 -332 -118 -225 -45 -333 -95 -424 -195 -35 -39 -106 -172 -106 -199 0 -23 90 -94 166 -132 108 -53 184 -68 399 -79 247 -13 329 -31 438 -97 56 -34 157 -127 157 -145 0 -4 -15 2 -34 13 -67 40 -197 76 -296 83 -246 17 -459 -86 -558 -271 -59 -111 -172 -426 -205 -573 -45 -195 -26 -290 55 -290 42 0 130 50 222 125 104 84 148 125 336 319 90 92 151 146 184 163 123 62 290 30 424 -81 92 -76 102 -94 117 -209 30 -227 94 -396 212 -557 30 -41 173 -192 317 -335 302 -300 336 -340 500 -585 153 -228 241 -448 287 -720 15 -86 18 -370 5 -479 -8 -74 -8 -74 65 -65 148 18 381 9 544 -21 172 -31 230 -49 370 -112 189 -86 336 -178 482 -300 41 -35 79 -63 84 -63 5 0 139 -130 297 -289 312 -313 374 -363 548 -439 124 -55 202 -78 314 -92 52 -6 109 -14 126 -16 53 -7 165 -141 211 -254 16 -40 23 -75 23 -130 0 -66 -4 -85 -34 -145 -28 -59 -51 -86 -147 -175 -268 -246 -449 -470 -451 -559 -2 -75 38 -97 160 -86 110 9 168 25 437 119 232 80 336 139 405 226 72 91 130 269 130 398 0 66 -39 231 -70 297 -16 33 -26 62 -23 65 10 10 129 -127 159 -185 44 -84 62 -168 69 -325 10 -215 30 -351 64 -430 29 -71 80 -147 124 -189 23 -21 29 -22 63 -11 63 21 153 80 199 132 74 82 110 170 154 373 45 208 67 272 119 345 36 52 87 98 96 89 3 -3 -2 -29 -10 -59 -8 -30 -18 -102 -21 -160 -6 -127 18 -244 74 -358 78 -158 264 -294 428 -313 103 -12 571 -11 662 2 80 11 153 37 185 66 31 28 23 75 -22 125 -80 92 -370 259 -674 389 -146 63 -149 65 -168 108 -30 65 -23 186 14 262 82 167 241 224 455 163 54 -15 121 -38 148 -51 66 -30 77 -29 130 12 59 45 179 101 258 122 95 24 297 7 332 -29 3 -3 -27 -8 -67 -11 -90 -8 -210 -41 -264 -72 -54 -32 -164 -115 -164 -124 0 -8 156 -121 167 -121 4 0 32 20 62 44 138 107 272 156 431 158 87 0 118 -4 180 -24 75 -25 75 -25 -5 -33 -139 -13 -294 -67 -385 -134 -64 -47 -150 -123 -150 -132 0 -12 99 -143 111 -147 5 -2 22 7 39 20 73 57 89 68 155 101 71 36 182 71 266 82 91 13 273 -22 365 -70 21 -10 9 -13 -94 -18 -211 -11 -368 -75 -529 -219 -51 -45 -93 -87 -93 -93 0 -7 14 -43 31 -81 28 -60 32 -84 38 -187 6 -117 6 -117 81 -51 194 171 373 244 599 244 115 0 205 -15 306 -50 92 -32 285 -152 368 -231 41 -38 78 -69 81 -69 36 0 -81 376 -174 561 -169 333 -469 584 -845 707 -295 96 -779 174 -1310 212 -82 5 -233 17 -335 25 -102 8 -275 19 -385 25 -841 44 -1406 111 -1726 204 -590 172 -1041 415 -1409 761 -325 303 -599 742 -675 1080 -10 44 -22 85 -27 91 -5 6 -41 19 -81 28 -190 45 -491 190 -702 340 -394 279 -697 653 -933 1152 -155 329 -248 642 -311 1054 -39 246 -85 804 -121 1460 -6 102 -12 201 -15 220 -3 19 -12 127 -20 240 -42 557 -106 979 -210 1365 -22 83 -154 347 -215 431 -201 274 -517 476 -899 575 -63 16 -128 29 -144 29 -28 0 -28 -1 37 -71 z  m 1068 -3658 c 32 -12 60 -27 64 -32 11 -18 -37 -57 -120 -98 -91 -45 -148 -60 -221 -61 -64 0 -166 22 -230 50 -49 21 -49 21 -20 45 38 31 157 94 210 112 63 20 246 11 317 -16 z  m 5685 -5653 c 6 -7 21 -40 33 -73 27 -71 32 -189 11 -275 -20 -84 -115 -260 -140 -260 -4 0 -20 39 -35 88 -36 120 -37 259 -1 346 24 59 104 186 116 186 4 0 11 -6 16 -12 z "></path><path id="pSAUVrUL3" d="M 970 5009 c -93 -11 -210 -49 -315 -102 -64 -32 -100 -60 -178 -140 -54 -55 -110 -118 -124 -140 -51 -81 -129 -324 -110 -343 3 -4 34 12 68 35 79 53 159 91 284 134 483 167 1034 19 1377 -371 100 -114 247 -360 235 -396 -3 -10 -11 -2 -123 126 -70 79 -213 203 -306 264 -73 49 -224 122 -303 147 -171 53 -420 50 -590 -8 -120 -40 -260 -144 -354 -261 -120 -148 -180 -345 -162 -534 6 -65 6 -65 46 -20 182 201 381 311 645 355 123 21 355 16 430 -8 205 -67 368 -174 484 -319 65 -80 150 -228 181 -311 10 -26 21 -50 25 -52 3 -2 33 3 66 12 46 12 87 14 184 9 69 -3 140 -9 158 -12 32 -6 32 -6 32 77 0 397 -177 881 -448 1229 -140 178 -411 417 -584 514 -93 51 -258 103 -370 115 -108 12 -140 12 -248 0 z "></path><path id="p16GgxM6Z0" d="M 923 3255 c -284 -62 -535 -337 -565 -618 -13 -115 1 -210 46 -321 39 -98 77 -157 147 -226 209 -209 534 -322 883 -308 97 4 107 3 81 -8 -16 -7 -37 -13 -46 -14 -75 -2 -438 -169 -522 -241 -7 -5 -41 -32 -77 -60 -126 -99 -277 -261 -374 -403 -140 -204 -260 -536 -302 -828 -7 -57 -18 -55 137 -28 242 40 543 158 735 287 337 225 552 506 679 885 24 72 45 131 47 133 2 2 3 -67 3 -153 1 -180 14 -265 61 -410 43 -133 89 -219 169 -318 106 -131 223 -209 390 -260 88 -27 258 -25 344 5 244 85 413 254 490 491 19 58 41 250 29 250 -2 0 -25 -18 -49 -41 -62 -57 -119 -96 -197 -131 -94 -43 -155 -58 -242 -58 -130 0 -252 46 -365 137 -134 109 -247 327 -286 553 -15 89 -18 313 -5 459 8 104 8 104 -40 97 -27 -3 -115 -9 -195 -13 -231 -9 -435 27 -612 111 -195 92 -312 214 -377 393 -20 55 -22 76 -18 175 4 90 10 127 31 181 32 81 101 191 156 246 23 23 41 43 41 46 0 10 -137 3 -197 -10 z "></path><path id="p1Z29SCxI" d="M2783.714938496994 2403.661885169756 C 2783.714938496994 2606.996833177285 2618.8793946165065 2771.8323770577726 2415.544446608977 2771.8323770577726 2212.2094986014476 2771.8323770577726 2047.3739547209602 2606.996833177285 2047.3739547209602 2403.661885169756 2047.3739547209602 2200.3269371622264 2212.2094986014476 2035.491393281739 2415.544446608977 2035.491393281739 2618.8793946165065 2035.491393281739 2783.714938496994 2200.3269371622264 2783.714938496994 2403.661885169756 Z M2375.0 2769.0 "></path><path id="pYuQ0AdWi" d="M 3094 2603 c -21 -4 -21 -6 -7 -46 22 -61 21 -277 -1 -336 -20 -54 -17 -57 69 -91 141 -55 300 -163 382 -258 142 -164 221 -341 243 -541 34 -317 -87 -649 -323 -882 -48 -48 -87 -90 -87 -94 0 -11 253 2 310 16 25 5 90 32 146 59 173 85 326 250 387 417 42 116 46 134 59 240 40 348 -149 731 -516 1043 -42 35 -76 68 -76 72 0 12 148 -58 240 -114 302 -184 520 -497 595 -858 21 -100 22 -358 1 -460 -34 -170 -124 -398 -192 -487 -13 -17 -24 -37 -24 -43 0 -29 188 27 315 93 56 29 100 62 149 112 129 133 183 224 232 397 23 81 26 113 27 248 2 162 -7 213 -64 370 -59 162 -254 425 -435 586 -205 183 -453 339 -669 421 -49 18 -99 38 -110 43 -23 11 -143 41 -257 64 -140 29 -327 42 -394 29 z "></path></g></g></svg>
